<svg width="322" height="37" viewBox="0 0 322 37" fill="none" xmlns="http://www.w3.org/2000/svg">
<g clip-path="url(#clip0_1441_814)">
<path d="M186.562 7.8158C186.499 9.90741 185.624 11.8923 184.123 13.3496C182.621 14.8069 180.611 15.622 178.519 15.622C176.427 15.622 174.417 14.8069 172.916 13.3496C171.414 11.8923 170.539 9.90741 170.477 7.8158C170.539 5.7242 171.414 3.73929 172.916 2.282C174.417 0.82471 176.427 0.00964355 178.519 0.00964355C180.611 0.00964355 182.621 0.82471 184.123 2.282C185.624 3.73929 186.499 5.7242 186.562 7.8158Z" fill="#1B9DD9"/>
<path d="M186.562 29.1842C186.608 30.7853 186.175 32.3637 185.319 33.7174C184.463 35.0711 183.223 36.1386 181.757 36.7832C180.291 37.4277 178.666 37.6201 177.09 37.3357C175.514 37.0513 174.059 36.303 172.91 35.1865C171.762 34.0701 170.973 32.6364 170.644 31.0688C170.315 29.5013 170.462 27.8712 171.064 26.3873C171.667 24.9033 172.699 23.633 174.027 22.739C175.356 21.8449 176.921 21.3677 178.523 21.3685C179.566 21.3464 180.603 21.5318 181.573 21.9139C182.544 22.2961 183.429 22.8674 184.177 23.5946C184.925 24.3218 185.521 25.1904 185.93 26.15C186.34 27.1096 186.554 28.141 186.562 29.1842Z" fill="#E6352B"/>
<path d="M213.648 1.15172H198.512V35.8483H208.39V25.9681H213.213C222.056 25.9681 228.495 21.622 228.495 13.444C228.495 5.62823 222.636 1.15172 213.648 1.15172ZM212.96 18.3841H208.252V9.19205H212.844C216.407 9.19205 218.479 10.8001 218.479 13.7845C218.609 16.6601 216.429 18.3841 212.982 18.3841H212.96ZM75.8197 27.2285H56.7507V21.7306H73.7484V14.1321H56.7507V8.84436H75.5807V0.724354H47.075V35.3919H75.7979L75.8197 27.2285ZM20.5609 15.972H19.069L13.7604 0.724354H0V35.3919H10.1392V16.8919H11.1749L17.2294 34.0446H22.2991L28.3898 16.9282H29.4255V35.4933H39.4199V0.804033H25.8478L20.5609 15.972ZM242.393 1.15172L227.227 35.9642H237.548L240.075 29.7565H253.741L256.269 35.9642H266.835L251.815 1.15172H242.393ZM242.965 22.2884L246.528 13.6758H247.448L250.895 22.2884H242.965ZM102.928 22.1725H106.838L110.742 22.2884C110.419 23.0903 109.953 23.8267 109.366 24.4614C108.435 25.4882 107.301 26.3097 106.035 26.8735C104.535 27.6128 102.875 27.9664 101.204 27.9021C95.5767 27.9021 91.5572 23.8819 91.5572 18.2537C91.5572 12.8573 95.4608 8.60532 100.632 8.60532C104.079 8.60532 106.607 9.7498 109.25 11.8215L114.993 5.07048C111.198 1.83986 106.838 0 100.668 0C89.638 0 81.599 7.92443 81.599 18.0364C81.599 28.612 89.8697 36.0801 100.9 36.0801C106.504 36.1352 111.95 34.2231 116.29 30.6764V15.168H102.964L102.928 22.1725ZM135.67 0.724354L120.621 35.3919H130.963L133.49 29.1842H147.156L149.684 35.3919H160.258L145.208 0.724354H135.67ZM136.242 21.8682L139.69 13.3643H140.725L144.173 21.8682H136.242ZM312.143 1.15172V35.8483H322.022V1.15172H312.143ZM303.395 13.0963C303.395 9.53974 302.359 6.89585 300.288 4.8242C297.876 2.52799 294.204 1.15172 288.7 1.15172H272.043V35.8483H281.921V25.28H286.172L293.313 35.8483H304.684L296.152 23.7805C300.556 21.9479 303.395 18.3841 303.395 13.0963ZM288.244 17.8119H281.798V9.4166H288.244C291.575 9.4166 293.523 10.7929 293.523 13.5527C293.509 16.2038 291.677 17.8119 288.244 17.8119Z" fill="white"/>
</g>
<defs>
<clipPath id="clip0_1441_814">
<rect width="322" height="37" fill="white"/>
</clipPath>
</defs>
</svg>
